<svg xmlns="http://www.w3.org/2000/svg" width="15" height="15" viewBox="0 0 15 15">
    <path data-name="사각형 1091" style="fill:none" d="M0 0h15v15H0z"/>
    <path d="M5.106 3.4a1.135 1.135 0 0 1-1.144-1.14 1 1 0 0 1 .186-.585L5.106 0l.957 1.675a1 1 0 0 1 .186.585A1.135 1.135 0 0 1 5.106 3.4zm2.606 5.668a1.891 1.891 0 0 0 1.383.585 1.934 1.934 0 0 0 1.117-.346v2.606a.52.52 0 0 1-.173.4.555.555 0 0 1-.386.16H.559a.555.555 0 0 1-.386-.16.521.521 0 0 1-.173-.4V9.307a1.934 1.934 0 0 0 1.117.346A1.891 1.891 0 0 0 2.5 9.068l.612-.612.612.612a1.878 1.878 0 0 0 1.383.559 1.878 1.878 0 0 0 1.383-.559l.61-.611zm.8-3.962a1.68 1.68 0 0 1 1.7 1.7v.878A1.136 1.136 0 0 1 9.095 8.8a1.049 1.049 0 0 1-.771-.319L7.1 7.26 5.877 8.483a1.043 1.043 0 0 1-.771.293 1.136 1.136 0 0 1-.8-.293L3.112 7.26 1.889 8.483a1.051 1.051 0 0 1-.771.319 1.073 1.073 0 0 1-.785-.332A1.076 1.076 0 0 1 0 7.685v-.877A1.645 1.645 0 0 1 .492 5.6 1.645 1.645 0 0 1 1.7 5.106h2.847V3.962h1.117v1.144H8.51z" transform="translate(2.5 1.5)" style="fill:#f68722"/>
</svg>
