<svg xmlns="http://www.w3.org/2000/svg" width="19" height="19" viewBox="0 0 19 19">
    <path data-name="사각형 1282" style="fill:none" d="M0 0h19v19H0z"/>
    <g data-name="그룹 450">
        <path data-name="패스 26053" d="M33.234 27.706a.724.724 0 0 0-.511 1.235l2.866 2.867-2.841 2.841a.723.723 0 1 0 1.023 1.023l3.864-3.864-3.89-3.89a.72.72 0 0 0-.511-.212" transform="translate(-22.329 -19.935)" style="fill:#262525"/>
        <path data-name="패스 26055" d="M2.745 2.5a.245.245 0 0 0-.245.245v5.439a3.567 3.567 0 0 0 3.564 3.563H10.8a.245.245 0 1 0 0-.49H6.064A3.077 3.077 0 0 1 2.99 8.184V2.745a.245.245 0 0 0-.245-.245z" transform="translate(2 .5)" style="stroke:#262525;stroke-miterlimit:8;fill:#262525"/>
    </g>
</svg>
