<svg xmlns="http://www.w3.org/2000/svg" width="49" height="49" viewBox="0 0 49 49">
    <g data-name="그룹 11157" transform="translate(-.308)">
        <circle data-name="타원 445" cx="24.5" cy="24.5" r="24.5" transform="translate(.308)" style="fill:rgba(255,255,255,.2)"/>
        <g data-name="그룹 11156">
            <path data-name="사각형 1131" transform="translate(13.308 13)" style="fill:none" d="M0 0h23v23H0z"/>
            <g data-name="그룹 223">
                <path data-name="패스 25935" d="M7.9 10.315h.032a5.168 5.168 0 0 0 4.418-2.433 4.978 4.978 0 0 0 .724-2.708A5.048 5.048 0 0 0 8.147 0h-.336a5.036 5.036 0 0 0-5.053 4.927v.246a5.041 5.041 0 0 0 4.924 5.142zM4.3 5.451a3.523 3.523 0 0 1 0-.325 3.406 3.406 0 0 1 .905-2.443 3.458 3.458 0 0 1 2.417-1.136h.325a3.481 3.481 0 0 1 3.577 3.319c0 .093.005.185 0 .279A3.483 3.483 0 0 1 8.208 8.77h-.326A3.48 3.48 0 0 1 4.3 5.451" transform="translate(13.473 14.804)" style="fill:#fff"/>
                <path data-name="패스 25936" d="M6.617 11.263A6.633 6.633 0 0 0 0 17.88v.772h1.545v-.774a5.087 5.087 0 0 1 5.071-5.071H9.54a5.086 5.086 0 0 1 5.072 5.071v.774h1.545v-.773a6.633 6.633 0 0 0-6.618-6.616z" transform="translate(13.308 15.478)" style="fill:#fff"/>
                <path data-name="패스 25937" d="M19.116 5.368h-1.544V8.69h-3.323v1.547h3.324v3.327h1.544v-3.327h3.323V8.69h-3.324z" transform="translate(14.16 15.125)" style="fill:#fff"/>
            </g>
        </g>
    </g>
</svg>
