<svg xmlns="http://www.w3.org/2000/svg" width="49" height="49" viewBox="0 0 49 49">
    <g data-name="그룹 11154" transform="translate(-1.228)">
        <circle data-name="타원 444" cx="24.5" cy="24.5" r="24.5" transform="translate(1.228)" style="fill:rgba(255,255,255,.2)"/>
        <g data-name="그룹 11155">
            <path data-name="사각형 1249" transform="translate(12.228 11)" style="fill:none" d="M0 0h27v27H0z"/>
            <g data-name="패스 26015" style="fill:none">
                <path d="M11.011 0A11.011 11.011 0 1 1 0 11.011 11.011 11.011 0 0 1 11.011 0z" style="stroke:none" transform="translate(14.675 13.53)"/>
                <path d="M11.011 1.5C5.767 1.5 1.5 5.767 1.5 11.011c0 5.245 4.267 9.512 9.511 9.512 5.245 0 9.512-4.267 9.512-9.512 0-5.244-4.267-9.511-9.512-9.511m0-1.5c6.082 0 11.012 4.93 11.012 11.011 0 6.082-4.93 11.012-11.012 11.012C4.93 22.023 0 17.093 0 11.01 0 4.93 4.93 0 11.011 0z" style="fill:#fff;stroke:none" transform="translate(14.675 13.53)"/>
            </g>
            <path data-name="선 218" transform="translate(18.957 17.812)" style="stroke:#fff;stroke-width:1.5px;fill:none" d="m0 0 14.682 13.458"/>
        </g>
    </g>
</svg>
