<svg xmlns="http://www.w3.org/2000/svg" width="49" height="49" viewBox="0 0 49 49">
    <circle data-name="타원 3" cx="24.5" cy="24.5" r="24.5" style="fill:#bcb3c5"/>
    <g data-name="그룹 544">
        <path data-name="패스 26102" d="M14.517 39.664a12.555 12.555 0 0 1-2.512-.253 12.464 12.464 0 0 1-9.7-9.7 12.594 12.594 0 0 1 0-5.024 12.441 12.441 0 0 1 .383-1.428H.657a.657.657 0 0 1 0-1.315h3.971l-.386.913a11.089 11.089 0 0 0-.65 2.093 11.272 11.272 0 0 0 0 4.5 11.1 11.1 0 0 0 1.678 3.982 11.207 11.207 0 0 0 3.013 3.013 11.092 11.092 0 0 0 3.986 1.678 11.33 11.33 0 0 0 4.5 0 11.082 11.082 0 0 0 3.987-1.678 11.25 11.25 0 0 0 1.644-1.362.657.657 0 0 1 .929.93 12.427 12.427 0 0 1-8.815 3.651" transform="translate(10 -2.732)" style="stroke:#fff;stroke-width:.5px;fill:#fff"/>
        <path data-name="패스 26103" d="M39.7 17.719h-4.038l.386-.913a11.084 11.084 0 0 0 .649-2.092 11.258 11.258 0 0 0 0-4.5 11.084 11.084 0 0 0-1.677-3.983 11.186 11.186 0 0 0-4.907-4.041 11.094 11.094 0 0 0-2.092-.65 11.318 11.318 0 0 0-4.5 0 11.092 11.092 0 0 0-3.986 1.678 11.216 11.216 0 0 0-1.647 1.362.657.657 0 1 1-.929-.93A12.485 12.485 0 0 1 20.92.979a12.4 12.4 0 0 1 2.341-.727 12.648 12.648 0 0 1 5.023 0 12.41 12.41 0 0 1 4.459 1.876 12.5 12.5 0 0 1 4.516 5.484 12.4 12.4 0 0 1 .727 2.341 12.576 12.576 0 0 1 0 5.023A12.373 12.373 0 0 1 37.6 16.4h2.1a.657.657 0 1 1 0 1.315" transform="translate(-1.256 12)" style="stroke:#fff;stroke-width:.5px;fill:#fff"/>
        <path data-name="패스 26104" d="M38.181 34.873a2.931 2.931 0 1 1 2.931-2.931 2.934 2.934 0 0 1-2.931 2.931m0-4.548a1.617 1.617 0 1 0 1.619 1.617 1.618 1.618 0 0 0-1.617-1.617" transform="translate(-13.666 -7.477)" style="stroke:#fff;stroke-width:.5px;fill:#fff"/>
    </g>
    <circle data-name="타원 67" cx="2.5" cy="2.5" r="2.5" transform="translate(22 22)" style="fill:#fff"/>
</svg>
