<svg xmlns="http://www.w3.org/2000/svg" width="20" height="20" viewBox="0 0 20 20">
    <path data-name="사각형 1090" style="fill:none" d="M0 0h20v20H0z"/>
    <path data-name="패스 47" d="M2.862 1.6a1.609 1.609 0 0 1 2.407.15l1.653 2.124a1.6 1.6 0 0 1 .291 1.377l-.5 2.018a.625.625 0 0 0 .164.594l2.265 2.264a.625.625 0 0 0 .594.164l2.018-.5a1.609 1.609 0 0 1 1.377.291l2.126 1.653a1.608 1.608 0 0 1 .15 2.407l-.954.954a2.562 2.562 0 0 1-2.652.647 17.178 17.178 0 0 1-6.461-4.075A17.177 17.177 0 0 1 1.261 5.2a2.563 2.563 0 0 1 .647-2.65l.954-.95z" transform="translate(1.876 1.873)" style="fill:#262525;fill-rule:evenodd"/>
</svg>
