<svg width="22" height="22" viewBox="0 0 22 22" fill="none" xmlns="http://www.w3.org/2000/svg">
<g clip-path="url(#clip0_1_19)">
<mask id="path-1-outside-1_1_19" maskUnits="userSpaceOnUse" x="1.69397" y="1.24501" width="19" height="18" fill="black">
<rect fill="white" x="1.69397" y="1.24501" width="19" height="18"/>
<path d="M17.415 16.073L15.846 13.332C15.7337 13.1352 15.6747 12.9126 15.675 12.686V8.27301C15.675 5.66601 13.578 3.54499 11 3.54499C8.423 3.54499 6.32599 5.66601 6.32599 8.27301V12.686C6.32599 12.913 6.267 13.136 6.155 13.332L4.586 16.072H17.415M18.829 17.372H3.172C3.08783 17.3713 3.00531 17.3486 2.93265 17.3061C2.85999 17.2636 2.79971 17.2028 2.75784 17.1298C2.71597 17.0568 2.69394 16.974 2.69397 16.8899C2.694 16.8057 2.71608 16.723 2.758 16.65L5.026 12.686V8.27301C5.026 4.94301 7.701 2.24501 11 2.24501C14.3 2.24501 16.975 4.94401 16.975 8.27301V12.686L19.243 16.65C19.2851 16.723 19.3074 16.8058 19.3076 16.8901C19.3077 16.9745 19.2858 17.0573 19.2439 17.1305C19.202 17.2037 19.1416 17.2646 19.0688 17.3071C18.996 17.3497 18.9133 17.3724 18.829 17.373V17.372Z"/>
</mask>
<path d="M17.415 16.073L15.846 13.332C15.7337 13.1352 15.6747 12.9126 15.675 12.686V8.27301C15.675 5.66601 13.578 3.54499 11 3.54499C8.423 3.54499 6.32599 5.66601 6.32599 8.27301V12.686C6.32599 12.913 6.267 13.136 6.155 13.332L4.586 16.072H17.415M18.829 17.372H3.172C3.08783 17.3713 3.00531 17.3486 2.93265 17.3061C2.85999 17.2636 2.79971 17.2028 2.75784 17.1298C2.71597 17.0568 2.69394 16.974 2.69397 16.8899C2.694 16.8057 2.71608 16.723 2.758 16.65L5.026 12.686V8.27301C5.026 4.94301 7.701 2.24501 11 2.24501C14.3 2.24501 16.975 4.94401 16.975 8.27301V12.686L19.243 16.65C19.2851 16.723 19.3074 16.8058 19.3076 16.8901C19.3077 16.9745 19.2858 17.0573 19.2439 17.1305C19.202 17.2037 19.1416 17.2646 19.0688 17.3071C18.996 17.3497 18.9133 17.3724 18.829 17.373V17.372Z" fill="white"/>
<path d="M15.846 13.332L14.9775 13.8278L14.9781 13.8288L15.846 13.332ZM15.675 12.686L16.675 12.6872V12.686H15.675ZM6.155 13.332L7.02279 13.8289L7.02324 13.8281L6.155 13.332ZM4.586 16.072L3.7182 15.5751L2.86103 17.072H4.586V16.072ZM18.829 17.372H19.829V16.372H18.829V17.372ZM3.172 17.372L3.16372 18.372H3.172V17.372ZM2.758 16.65L3.6252 17.148L3.62597 17.1466L2.758 16.65ZM5.026 12.686L5.89397 13.1826L6.026 12.9519V12.686H5.026ZM16.975 12.686H15.975V12.9519L16.107 13.1826L16.975 12.686ZM19.243 16.65L18.375 17.1466L18.377 17.15L19.243 16.65ZM18.829 17.373H17.829V18.3801L18.8361 18.373L18.829 17.373ZM18.2829 15.5762L16.7139 12.8352L14.9781 13.8288L16.5471 16.5698L18.2829 15.5762ZM16.7144 12.8362C16.6885 12.7909 16.6749 12.7395 16.675 12.6872L14.675 12.6848C14.6745 13.0856 14.7788 13.4796 14.9775 13.8278L16.7144 12.8362ZM16.675 12.686V8.27301H14.675V12.686H16.675ZM16.675 8.27301C16.675 5.12442 14.1409 2.54499 11 2.54499V4.54499C13.0151 4.54499 14.675 6.20759 14.675 8.27301H16.675ZM11 2.54499C7.85995 2.54499 5.32599 5.12455 5.32599 8.27301H7.32599C7.32599 6.20746 8.98605 4.54499 11 4.54499V2.54499ZM5.32599 8.27301V12.686H7.32599V8.27301H5.32599ZM5.32599 12.686C5.32599 12.7402 5.31183 12.792 5.28676 12.8359L7.02324 13.8281C7.22217 13.48 7.32599 13.0858 7.32599 12.686H5.32599ZM5.2872 12.8351L3.7182 15.5751L5.45379 16.5689L7.02279 13.8289L5.2872 12.8351ZM4.586 17.072H17.415V15.072H4.586V17.072ZM18.829 16.372H3.172V18.372H18.829V16.372ZM3.18028 16.372C3.27084 16.3728 3.35951 16.3973 3.43751 16.4429L2.42779 18.1693C2.6511 18.2999 2.90481 18.3698 3.16372 18.372L3.18028 16.372ZM3.43751 16.4429C3.51554 16.4885 3.58031 16.5538 3.62535 16.6323L1.89034 17.6272C2.01911 17.8518 2.20444 18.0386 2.42779 18.1693L3.43751 16.4429ZM3.62535 16.6323C3.67029 16.7107 3.694 16.7996 3.69397 16.8902L1.69397 16.8896C1.69389 17.1485 1.76165 17.4028 1.89034 17.6272L3.62535 16.6323ZM3.69397 16.8902C3.69394 16.9808 3.67017 17.0696 3.6252 17.148L1.8908 16.152C1.76199 16.3764 1.69405 16.6306 1.69397 16.8896L3.69397 16.8902ZM3.62597 17.1466L5.89397 13.1826L4.15803 12.1894L1.89002 16.1534L3.62597 17.1466ZM6.026 12.686V8.27301H4.026V12.686H6.026ZM6.026 8.27301C6.026 5.48692 8.26162 3.24501 11 3.24501V1.24501C7.14038 1.24501 4.026 4.3991 4.026 8.27301H6.026ZM11 3.24501C13.7394 3.24501 15.975 5.48792 15.975 8.27301H17.975C17.975 4.40009 14.8606 1.24501 11 1.24501V3.24501ZM15.975 8.27301V12.686H17.975V8.27301H15.975ZM16.107 13.1826L18.375 17.1466L20.111 16.1534L17.843 12.1894L16.107 13.1826ZM18.377 17.15C18.3318 17.0717 18.3078 16.9828 18.3076 16.8919L20.3076 16.8884C20.3071 16.6289 20.2385 16.3743 20.109 16.15L18.377 17.15ZM18.3076 16.8919C18.3074 16.8013 18.331 16.7122 18.3761 16.6336L20.1117 17.6274C20.2405 17.4025 20.3081 17.1476 20.3076 16.8884L18.3076 16.8919ZM18.3761 16.6336C18.4212 16.5549 18.4861 16.4895 18.5642 16.4438L19.5734 18.1705C19.7971 18.0397 19.9828 17.8525 20.1117 17.6274L18.3761 16.6336ZM18.5642 16.4438C18.6424 16.3981 18.7313 16.3737 18.8219 16.373L18.8361 18.373C19.0953 18.3711 19.3496 18.3013 19.5734 18.1705L18.5642 16.4438ZM19.829 17.373V17.372H17.829V17.373H19.829Z" fill="black" fill-opacity="0.1" mask="url(#path-1-outside-1_1_19)"/>
<path d="M14.219 17.26C14.0781 17.9484 13.7093 18.5693 13.172 19.0222C12.6348 19.4752 11.9605 19.7338 11.2581 19.7562C10.5558 19.7786 9.86634 19.5636 9.30127 19.1459C8.7362 18.7281 8.32851 18.1321 8.14401 17.454" stroke="black" stroke-opacity="0.1" stroke-width="3" stroke-miterlimit="10" stroke-linecap="round"/>
<path d="M17.415 16.073L15.846 13.332C15.7337 13.1352 15.6747 12.9126 15.675 12.686V8.27301C15.675 5.66601 13.578 3.54499 11 3.54499C8.423 3.54499 6.32599 5.66601 6.32599 8.27301V12.686C6.32599 12.913 6.267 13.136 6.155 13.332L4.586 16.072H17.415M18.829 17.372H3.172C3.08783 17.3713 3.00531 17.3486 2.93265 17.3061C2.85999 17.2636 2.79971 17.2028 2.75784 17.1298C2.71597 17.0568 2.69394 16.974 2.69397 16.8899C2.694 16.8057 2.71608 16.723 2.758 16.65L5.026 12.686V8.27301C5.026 4.94301 7.701 2.24501 11 2.24501C14.3 2.24501 16.975 4.94401 16.975 8.27301V12.686L19.243 16.65C19.2851 16.723 19.3074 16.8058 19.3076 16.8901C19.3077 16.9745 19.2858 17.0573 19.2439 17.1305C19.202 17.2037 19.1416 17.2646 19.0688 17.3071C18.996 17.3497 18.9133 17.3724 18.829 17.373V17.372Z" fill="white"/>
<path d="M14.219 17.26C14.0781 17.9484 13.7093 18.5693 13.172 19.0222C12.6348 19.4752 11.9605 19.7338 11.2581 19.7562C10.5558 19.7786 9.86634 19.5636 9.30127 19.1459C8.7362 18.7281 8.32851 18.1321 8.14401 17.454" stroke="white" stroke-width="1.3" stroke-miterlimit="10" stroke-linecap="round"/>
</g>
<defs>
<clipPath id="clip0_1_19">
<rect width="22" height="22" fill="white"/>
</clipPath>
</defs>
</svg>
