<svg xmlns="http://www.w3.org/2000/svg" width="22" height="22" viewBox="0 0 22 22">
    <path data-name="사각형 1132" style="fill:none" d="M0 0h22v22H0z"/>
    <g data-name="그룹 221">
        <path data-name="패스 25933" d="M7.587 15.17a7.583 7.583 0 1 1 5.364-2.218 7.561 7.561 0 0 1-5.364 2.218m0-13.568a5.985 5.985 0 1 0 4.233 1.751A5.969 5.969 0 0 0 7.587 1.6" style="fill:#262525" transform="translate(2 2)"/>
        <path data-name="패스 25934" d="M17.493 18.292a.8.8 0 0 1-.565-.234l-4.54-4.539a.8.8 0 1 1 1.13-1.131l4.54 4.539a.8.8 0 0 1-.565 1.365" style="fill:#262525" transform="translate(2 2)"/>
    </g>
</svg>
