<svg xmlns="http://www.w3.org/2000/svg" width="22" height="22" viewBox="0 0 22 22">
    <defs>
        <clipPath id="l9i7y3wrua">
            <path data-name="사각형 1102" style="fill:#999" d="M0 0h21.18v19.225H0z"/>
        </clipPath>
    </defs>
    <path data-name="사각형 1085" style="fill:none" d="M0 0h22v22H0z"/>
    <g data-name="그룹 179">
        <g data-name="그룹 178" style="clip-path:url(#l9i7y3wrua)" transform="translate(.5 1)">
            <path data-name="패스 25904" d="M9.973 17.454h-.019a9.988 9.988 0 0 1-2.286-.375 15.686 15.686 0 0 1-1.24-.405 2.106 2.106 0 0 0-.748-.147 2.267 2.267 0 0 0-.783.143l-2.4.878.687-2.448.025-.137a1.664 1.664 0 0 0-.273-1.082 2 2 0 0 0-.132-.2A7.627 7.627 0 0 1 1.5 9.432 8.079 8.079 0 0 1 9.619 1.5h.155a8.191 8.191 0 0 1 5.771 2.249h2.014A9.772 9.772 0 0 0 9.749 0 9.578 9.578 0 0 0 0 9.419a9.151 9.151 0 0 0 1.589 5.144c.021.027.04.057.089.134a.212.212 0 0 1 .036.092L.895 17.71a1.47 1.47 0 0 0-.058.353 1.179 1.179 0 0 0 1.232 1.162h.007a1.274 1.274 0 0 0 .379-.092l2.979-1.063a.593.593 0 0 1 .222-.043.548.548 0 0 1 .227.045c.183.07.787.289 1.381.451a11.479 11.479 0 0 0 2.7.43h.025a9.489 9.489 0 0 0 6.735-2.78c.136-.135.258-.28.384-.422h-2.174a8.005 8.005 0 0 1-4.961 1.7M2.462 14.9z" style="fill:#000000"/>
            <path data-name="패스 25905" d="M16.586 5.884v3.132H13.45v1.46h3.136v3.14h1.458v-3.138h3.136V9.016h-3.136V5.884z" style="fill:#000000"/>
        </g>
         <g data-name="그룹 178" style="clip-path:url(#l9i7y3wrua)" transform="translate(.5 1)">
            <path data-name="패스 25904" d="M9.973 17.454h-.019a9.988 9.988 0 0 1-2.286-.375 15.686 15.686 0 0 1-1.24-.405 2.106 2.106 0 0 0-.748-.147 2.267 2.267 0 0 0-.783.143l-2.4.878.687-2.448.025-.137a1.664 1.664 0 0 0-.273-1.082 2 2 0 0 0-.132-.2A7.627 7.627 0 0 1 1.5 9.432 8.079 8.079 0 0 1 9.619 1.5h.155a8.191 8.191 0 0 1 5.771 2.249h2.014A9.772 9.772 0 0 0 9.749 0 9.578 9.578 0 0 0 0 9.419a9.151 9.151 0 0 0 1.589 5.144c.021.027.04.057.089.134a.212.212 0 0 1 .036.092L.895 17.71a1.47 1.47 0 0 0-.058.353 1.179 1.179 0 0 0 1.232 1.162h.007a1.274 1.274 0 0 0 .379-.092l2.979-1.063a.593.593 0 0 1 .222-.043.548.548 0 0 1 .227.045c.183.07.787.289 1.381.451a11.479 11.479 0 0 0 2.7.43h.025a9.489 9.489 0 0 0 6.735-2.78c.136-.135.258-.28.384-.422h-2.174a8.005 8.005 0 0 1-4.961 1.7M2.462 14.9z" style="fill:#ffffff"/>
            <path data-name="패스 25905" d="M16.586 5.884v3.132H13.45v1.46h3.136v3.14h1.458v-3.138h3.136V9.016h-3.136V5.884z" style="fill:#ffffff"/>
        </g>
    </g>
</svg>
