<svg width="22" height="22" viewBox="0 0 22 22" fill="none" xmlns="http://www.w3.org/2000/svg">
<g clip-path="url(#clip0_1_7)">
<path d="M18 2.65H3.99999C3.25441 2.65 2.64999 3.25442 2.64999 4V18C2.64999 18.7456 3.25441 19.35 3.99999 19.35H18C18.7456 19.35 19.35 18.7456 19.35 18V4C19.35 3.25442 18.7456 2.65 18 2.65Z" stroke="black" stroke-opacity="0.1" stroke-width="3"/>
<path d="M11.565 8H10.434V10.432H8V11.567H10.434V14.004H11.565V11.567H13.999V10.432H11.565V8Z" fill="black" fill-opacity="0.1"/>
<path d="M11.965 8V7.6H11.565H10.434H10.034V8V10.032H8H7.6V10.432V11.567V11.967H8H10.034V14.004V14.404H10.434H11.565H11.965V14.004V11.967H13.999H14.399V11.567V10.432V10.032H13.999H11.965V8Z" stroke="black" stroke-opacity="0.1" stroke-width="0.8"/>
<path d="M18 2.65H3.99999C3.25441 2.65 2.64999 3.25442 2.64999 4V18C2.64999 18.7456 3.25441 19.35 3.99999 19.35H18C18.7456 19.35 19.35 18.7456 19.35 18V4C19.35 3.25442 18.7456 2.65 18 2.65Z" stroke="white" stroke-width="1.3"/>
<path d="M11.565 8H10.434V10.432H8V11.567H10.434V14.004H11.565V11.567H13.999V10.432H11.565V8Z" fill="white"/>
</g>
<defs>
<clipPath id="clip0_1_7">
<rect width="22" height="22" fill="white"/>
</clipPath>
</defs>
</svg>
