<svg xmlns="http://www.w3.org/2000/svg" width="22" height="22" viewBox="0 0 22 22">
    <defs>
        <clipPath id="9w3e34b4ka">
            <path data-name="사각형 1408" style="fill:none" d="M0 0h19.271v16.57H0z"/>
        </clipPath>
    </defs>
    <path data-name="사각형 1409" style="fill:none" d="M0 0h22v22H0z"/>
    <g data-name="그룹 10217">
        <g data-name="그룹 10216" style="clip-path:url(#9w3e34b4ka)" transform="translate(1.364 2.715)">
            <g data-name="그룹 11438">
                <g data-name="그룹 11437" style="clip-path:url(#9w3e34b4ka)" transform="translate(-.003)">
                    <path data-name="패스 35372" d="M17.742 2.287h-1.79a1.787 1.787 0 0 1-1.668-1.146A1.781 1.781 0 0 0 12.622 0H6.647a1.778 1.778 0 0 0-1.662 1.141 1.79 1.79 0 0 1-1.668 1.146H1.529A1.528 1.528 0 0 0 0 3.814v11.227a1.528 1.528 0 0 0 1.529 1.529h16.242a1.5 1.5 0 0 0 1.5-1.5V3.816a1.53 1.53 0 0 0-1.529-1.529m-2.724 8.291a5.118 5.118 0 0 1-8.586 2.588l-1.055 1.055-1.14-4.257L8.493 11.1l-1.051 1.056a3.692 3.692 0 0 0 6.181-1.876.713.713 0 1 1 1.395.3m-4.241-3.231L11.829 6.3a3.692 3.692 0 0 0-6.181 1.874.714.714 0 0 1-.7.564.7.7 0 0 1-.15-.015.713.713 0 0 1-.548-.847 5.119 5.119 0 0 1 8.585-2.588l1.055-1.055 1.141 4.256z" style="fill:#fff"/>
                </g>
            </g>
        </g>
    </g>
</svg>
