<svg xmlns="http://www.w3.org/2000/svg" width="52" height="52" viewBox="0 0 52 52">
    <path data-name="사각형 1230" style="fill:none" d="M0 0h52v52H0z"/>
    <g data-name="그룹 348">
        <path data-name="패스 28" d="M37.25 28.558a1.692 1.692 0 0 1 .3-1.127 3.11 3.11 0 0 1 .194-.286A14.966 14.966 0 0 0 40.3 18.8c.028-8.518-7.159-15.428-16.046-15.428A15.936 15.936 0 0 0 8.52 15.653a14.846 14.846 0 0 0-.342 3.16 15.671 15.671 0 0 0 15.8 15.622 19.031 19.031 0 0 0 4.361-.711 28.804 28.804 0 0 0 2.347-.767 2.443 2.443 0 0 1 .859-.158 2.4 2.4 0 0 1 .933.185l5.238 1.857a1.25 1.25 0 0 0 .36.092.74.74 0 0 0 .74-.74 1.188 1.188 0 0 0-.046-.25z" transform="translate(5.133 3.625)" style="stroke-miterlimit:10;stroke-linecap:round;stroke-width:3px;stroke:#ededed;fill:none"/>
        <path data-name="패스 29" d="M5.08 16.313a13.509 13.509 0 0 0 .59 14.1c.213.322.334.572.3.74s-1.1 5.715-1.1 5.715a.74.74 0 0 0 .251.709.754.754 0 0 0 .477.163.67.67 0 0 0 .269-.055l5.192-2.033a1.451 1.451 0 0 1 1.109.018 15.647 15.647 0 0 0 5.619 1.109 14.708 14.708 0 0 0 7.391-1.979" transform="translate(3.625 7.686)" style="stroke-miterlimit:10;stroke-linecap:round;stroke-width:3px;stroke:#ededed;fill:none"/>
    </g>
    <path data-name="선 213" transform="translate(5.5 7.5)" style="stroke:#fff;stroke-linecap:round;stroke-width:3px;fill:none" d="M39 0 0 39"/>
    <path data-name="선 212" transform="translate(7.5 9.5)" style="stroke-linecap:round;stroke-width:3px;stroke:#ededed;fill:none" d="M39 0 0 39"/>
</svg>
