<svg xmlns="http://www.w3.org/2000/svg" width="22" height="22" viewBox="0 0 22 22">
    <path data-name="사각형 1132" style="fill:none" d="M0 0h22v22H0z"/>
    <g data-name="그룹 14">
        <path data-name="사각형 1008" transform="translate(2.596 2.595)" style="stroke:#262525;stroke-linecap:square;stroke-miterlimit:8;stroke-width:1.3px;fill:none" d="M0 0h6.537v6.537H0z"/>
        <path data-name="사각형 1009" transform="translate(5.398 5.397)" style="stroke:#262525;stroke-linecap:square;stroke-miterlimit:8;stroke-width:1.3px;fill:none" d="M0 0h.934v.934H0z"/>
        <path data-name="사각형 1010" transform="translate(2.596 12.867)" style="stroke:#262525;stroke-linecap:square;stroke-miterlimit:8;stroke-width:1.3px;fill:none" d="M0 0h6.537v6.537H0z"/>
        <path data-name="사각형 1011" transform="translate(5.398 15.669)" style="stroke:#262525;stroke-linecap:square;stroke-miterlimit:8;stroke-width:1.3px;fill:none" d="M0 0h.934v.934H0z"/>
        <path data-name="사각형 1012" transform="translate(12.868 18.471)" style="stroke:#262525;stroke-linecap:square;stroke-miterlimit:8;stroke-width:1.3px;fill:none" d="M0 0h.934v.934H0z"/>
        <path data-name="사각형 1013" transform="translate(15.67 15.669)" style="stroke:#262525;stroke-linecap:square;stroke-miterlimit:8;stroke-width:1.3px;fill:none" d="M0 0h.934v.934H0z"/>
        <path data-name="사각형 1014" transform="translate(12.868 12.867)" style="stroke:#262525;stroke-linecap:square;stroke-miterlimit:8;stroke-width:1.3px;fill:none" d="M0 0h.934v.934H0z"/>
        <path data-name="사각형 1015" transform="translate(18.472 15.669)" style="stroke:#262525;stroke-linecap:square;stroke-miterlimit:8;stroke-width:1.3px;fill:none" d="M0 0h.934v.934H0z"/>
        <path data-name="사각형 1016" transform="translate(18.472 12.867)" style="stroke:#262525;stroke-linecap:square;stroke-miterlimit:8;stroke-width:1.3px;fill:none" d="M0 0h.934v.934H0z"/>
        <path data-name="사각형 1017" transform="translate(18.472 18.471)" style="stroke:#262525;stroke-linecap:square;stroke-miterlimit:8;stroke-width:1.3px;fill:none" d="M0 0h.934v.934H0z"/>
        <path data-name="사각형 1018" transform="translate(12.868 2.595)" style="stroke:#262525;stroke-linecap:square;stroke-miterlimit:8;stroke-width:1.3px;fill:none" d="M0 0h6.537v6.537H0z"/>
        <path data-name="사각형 1019" transform="translate(15.67 5.397)" style="stroke:#262525;stroke-linecap:square;stroke-miterlimit:8;stroke-width:1.3px;fill:none" d="M0 0h.934v.934H0z"/>
    </g>
</svg>
