<svg xmlns="http://www.w3.org/2000/svg" width="22" height="22" viewBox="0 0 22 22">
    <path data-name="사각형 1418" style="fill:none" d="M0 0h22v22H0z"/>
    <g data-name="그룹 10244">
        <path data-name="패스 26142" d="M.408 2.447h7.383a2.039 2.039 0 0 0 4 0h7.383a.408.408 0 0 0 0-.816h-7.386a2.039 2.039 0 0 0-4 0H.408a.408.408 0 1 0 0 .816M9.789.816a1.224 1.224 0 1 1-1.223 1.223A1.225 1.225 0 0 1 9.789.816" style="fill:#999;stroke:#999;stroke-width:.5px" transform="translate(1 3)"/>
        <path data-name="패스 26143" d="M19.171 15.632H7.709a2.039 2.039 0 0 0-4 0H.408a.408.408 0 0 0 0 .816h3.3a2.039 2.039 0 0 0 4 0h11.463a.408.408 0 0 0 0-.816m-13.46 1.631a1.224 1.224 0 1 1 1.224-1.224 1.225 1.225 0 0 1-1.224 1.224" transform="translate(1 -5.29)" style="fill:#999;stroke:#999;stroke-width:.5px"/>
        <path data-name="패스 26144" d="M19.171 29.632h-3.3a2.039 2.039 0 0 0-4 0H.408a.408.408 0 0 0 0 .816H11.87a2.039 2.039 0 0 0 4 0h3.3a.408.408 0 0 0 0-.816m-5.3 1.632a1.224 1.224 0 1 1 1.224-1.224 1.225 1.225 0 0 1-1.224 1.224" transform="translate(1 -13.579)" style="fill:#999;stroke:#999;stroke-width:.5px"/>
    </g>
</svg>
