<svg id="ic_filter_25" xmlns="http://www.w3.org/2000/svg" width="25" height="25" viewBox="0 0 25 25">
  <defs>
    <style>
      .cls-1 {
        fill: none;
      }

      .cls-2 {
        fill: #f68722;
        stroke: #f68722;
        stroke-width: 0.5px;
      }
    </style>
  </defs>
  <rect id="사각형_1262" data-name="사각형 1262" class="cls-1" width="25" height="25"/>
  <g id="그룹_422" data-name="그룹 422" transform="translate(3 3)">
    <path id="패스_26040" data-name="패스 26040" class="cls-2" d="M25.457,4.653H27.74V6.936a.457.457,0,1,0,.913,0V4.653h2.283a.457.457,0,0,0,0-.913H28.653V1.457a.457.457,0,1,0-.913,0V3.74H25.457a.457.457,0,0,0,0,.913" transform="translate(-24.196 0.511)"/>
    <path id="패스_26041" data-name="패스 26041" class="cls-2" d="M5.936,2.74H3.653V.457a.457.457,0,1,0-.913,0V2.74H.457a.457.457,0,1,0,0,.913H2.74V5.936a.457.457,0,1,0,.913,0V3.653H5.936a.457.457,0,0,0,0-.913" transform="translate(13.274)"/>
    <path id="패스_26042" data-name="패스 26042" class="cls-2" d="M9.936,26.74H7.653V24.457a.457.457,0,1,0-.913,0V26.74H4.457a.457.457,0,0,0,0,.913H6.74v2.283a.457.457,0,1,0,.913,0V27.653H9.936a.457.457,0,0,0,0-.913" transform="translate(8.502 -11.987)"/>
    <path id="패스_26043" data-name="패스 26043" class="cls-2" d="M26.188,14.469a1.142,1.142,0,0,0-.337-.813l-1.319-1.319a1.15,1.15,0,0,0-1.626,0L12.337,22.906a1.149,1.149,0,0,0,0,1.626l1.319,1.319a1.149,1.149,0,0,0,1.626,0l10.57-10.569a1.141,1.141,0,0,0,.337-.813M14.636,25.205a.243.243,0,0,1-.335,0l-1.319-1.319a.236.236,0,0,1,0-.334l7.261-7.262L21.9,17.944Zm10.57-10.57L22.543,17.3,20.89,15.645l2.662-2.662a.236.236,0,0,1,.334,0L25.206,14.3a.236.236,0,0,1,0,.334" transform="translate(-12 -6.521)"/>
  </g>
</svg>
