<svg xmlns="http://www.w3.org/2000/svg" width="92" height="92" viewBox="0 0 92 92">
    <circle data-name="타원 22" cx="46" cy="46" r="46" style="fill:none"/>
    <g data-name="그룹 10293">
        <g data-name="그룹 10292">
            <path data-name="패스 26167" d="M47.205 0H2.287A2.289 2.289 0 0 0 0 2.286v29.5a2.289 2.289 0 0 0 2.287 2.287h44.918a2.289 2.289 0 0 0 2.286-2.287v-29.5A2.289 2.289 0 0 0 47.205 0M28.858 16.356l-1.03.87-2.99 2.525a.247.247 0 0 1-.093.049.243.243 0 0 1-.094-.049l-1.908-1.612-2.111-1.783L3.386 1.785h42.72zM1.784 2.767l16.891 14.27L1.784 31.306zm1.6 29.521L20.058 18.2l1.535 1.3 1.907 1.613a2.236 2.236 0 0 0 .194.143 2.016 2.016 0 0 0 .9.323c.031 0 .062.008.094.009h.106a2.044 2.044 0 0 0 .907-.275 2.01 2.01 0 0 0 .279-.2l2.989-2.525.455-.383 16.682 14.083zm27.43-15.252L47.708 2.767v28.539z" style="fill:#1a1311;stroke:#262525" transform="translate(20 29.147)"/>
        </g>
    </g>
    <g data-name="그룹 268" transform="translate(-138.5 -294.5)">
        <circle data-name="타원 38" cx="8" cy="8" r="8" transform="translate(198 346)" style="fill:#262525"/>
        <path data-name="패스 25961" d="M18.842 5.368h-1.457V8.5h-3.136v1.46h3.136v3.14h1.457V9.962h3.136V8.5h-3.136z" transform="translate(187.887 344.766)" style="fill:#fff"/>
    </g>
</svg>
