<svg xmlns="http://www.w3.org/2000/svg" width="40" height="40" viewBox="0 0 40 40">
    <path data-name="사각형 1188" style="fill:none" d="M0 0h40v40H0z"/>
    <g data-name="그룹 14">
        <path data-name="사각형 1008" style="stroke:#262525;stroke-linecap:square;stroke-miterlimit:8;stroke-width:1.3px;fill:none" d="M0 0h7.823v7.823H0z" transform="translate(10 10)"/>
        <path data-name="사각형 1009" transform="translate(13.353 13.353)" style="stroke:#262525;stroke-linecap:square;stroke-miterlimit:8;stroke-width:1.3px;fill:none" d="M0 0h1.118v1.118H0z"/>
        <path data-name="사각형 1010" transform="translate(10 22.294)" style="stroke:#262525;stroke-linecap:square;stroke-miterlimit:8;stroke-width:1.3px;fill:none" d="M0 0h7.823v7.823H0z"/>
        <path data-name="사각형 1011" transform="translate(13.353 25.647)" style="stroke:#262525;stroke-linecap:square;stroke-miterlimit:8;stroke-width:1.3px;fill:none" d="M0 0h1.118v1.118H0z"/>
        <path data-name="사각형 1012" transform="translate(22.294 29)" style="stroke:#262525;stroke-linecap:square;stroke-miterlimit:8;stroke-width:1.3px;fill:none" d="M0 0h1.118v1.118H0z"/>
        <path data-name="사각형 1013" transform="translate(25.647 25.647)" style="stroke:#262525;stroke-linecap:square;stroke-miterlimit:8;stroke-width:1.3px;fill:none" d="M0 0h1.118v1.118H0z"/>
        <path data-name="사각형 1014" transform="translate(22.294 22.294)" style="stroke:#262525;stroke-linecap:square;stroke-miterlimit:8;stroke-width:1.3px;fill:none" d="M0 0h1.118v1.118H0z"/>
        <path data-name="사각형 1015" transform="translate(29 25.647)" style="stroke:#262525;stroke-linecap:square;stroke-miterlimit:8;stroke-width:1.3px;fill:none" d="M0 0h1.118v1.118H0z"/>
        <path data-name="사각형 1016" transform="translate(29 22.294)" style="stroke:#262525;stroke-linecap:square;stroke-miterlimit:8;stroke-width:1.3px;fill:none" d="M0 0h1.118v1.118H0z"/>
        <path data-name="사각형 1017" transform="translate(29 29)" style="stroke:#262525;stroke-linecap:square;stroke-miterlimit:8;stroke-width:1.3px;fill:none" d="M0 0h1.118v1.118H0z"/>
        <path data-name="사각형 1018" transform="translate(22.294 10)" style="stroke:#262525;stroke-linecap:square;stroke-miterlimit:8;stroke-width:1.3px;fill:none" d="M0 0h7.823v7.823H0z"/>
        <path data-name="사각형 1019" transform="translate(25.647 13.353)" style="stroke:#262525;stroke-linecap:square;stroke-miterlimit:8;stroke-width:1.3px;fill:none" d="M0 0h1.118v1.118H0z"/>
    </g>
</svg>
