<svg xmlns="http://www.w3.org/2000/svg" width="40" height="40" viewBox="0 0 40 40">
    <defs>
        <clipPath id="w6z9tmfh7a">
            <path data-name="사각형 1186" style="fill:#262525" d="M0 0h29.899v25.754H0z"/>
        </clipPath>
    </defs>
    <path data-name="사각형 1187" style="fill:none" d="M0 0h40v40H0z"/>
    <g data-name="그룹 282">
        <g data-name="그룹 281" style="clip-path:url(#w6z9tmfh7a)" transform="translate(5.11 7.424)">
            <path data-name="패스 25962" d="M11.979 27.271A51.054 51.054 0 0 1 .847 26.1a.8.8 0 0 1-.608-.609A10.011 10.011 0 0 1 0 23.32a10.876 10.876 0 0 1 6.695-9.764 6.78 6.78 0 1 1 10.567 0 10.875 10.875 0 0 1 6.694 9.764 9.97 9.97 0 0 1-.239 2.167.8.8 0 0 1-.608.609 51.05 51.05 0 0 1-11.132 1.175m-10.266-2.63a49.8 49.8 0 0 0 10.268 1.024 49.831 49.831 0 0 0 10.268-1.024 8.333 8.333 0 0 0 .105-1.321 9.419 9.419 0 0 0-6.759-8.693.8.8 0 0 1-.266-1.373 5.175 5.175 0 1 0-6.695 0 .8.8 0 0 1-.266 1.373 9.419 9.419 0 0 0-6.76 8.693 8.349 8.349 0 0 0 .106 1.321" transform="translate(0 -1.516)" style="fill:#262525"/>
            <path data-name="패스 25963" d="M44.134 22.582a.8.8 0 0 1-.8-.8 9.424 9.424 0 0 0-6.759-8.671.8.8 0 0 1-.267-1.373 5.17 5.17 0 0 0-.851-8.474.8.8 0 0 1-.2-1.247 6.267 6.267 0 0 1 9.541 8.11 10.009 10.009 0 0 1 6.085 8.959 9.2 9.2 0 0 1-.22 2 .8.8 0 0 1-.607.609 44.44 44.44 0 0 1-5.848.887h-.069M38.243 12.04A10.99 10.99 0 0 1 44.9 20.9a42.546 42.546 0 0 0 4.291-.663 7.591 7.591 0 0 0 .088-1.151 8.55 8.55 0 0 0-6.141-7.886.8.8 0 0 1-.266-1.373 4.663 4.663 0 0 0-3.019-8.22 4.6 4.6 0 0 0-2.7.865 6.772 6.772 0 0 1 1.091 9.57" transform="translate(-20.98)" style="fill:#262525"/>
        </g>
    </g>
</svg>
