<svg xmlns="http://www.w3.org/2000/svg" width="40" height="40" viewBox="0 0 40 40">
    <path data-name="사각형 1187" style="fill:none" d="M0 0h40v40H0z"/>
    <g data-name="패스 25972" style="fill:#262525;fill-rule:evenodd">
        <path d="M16.556 21.06c-.38 0-.754-.064-1.113-.19A23.339 23.339 0 0 1 1.214 6.64c-.445-1.266-.103-2.673.894-3.671l1.283-1.281a2.248 2.248 0 0 1 1.74-.657c.648.04 1.247.357 1.646.87L8.999 4.76c.424.544.577 1.268.41 1.937L8.73 9.41a.745.745 0 0 0 .195.703l3.046 3.044a.736.736 0 0 0 .704.195l2.713-.678a2.265 2.265 0 0 1 1.938.41l2.858 2.222a2.265 2.265 0 0 1 .212 3.386l-1.283 1.283c-.689.689-1.62 1.084-2.557 1.084zM4.99 2.548a.736.736 0 0 0-.524.217L3.183 4.047c-.58.58-.783 1.38-.533 2.088a21.806 21.806 0 0 0 13.298 13.298c.195.069.4.103.61.103a2.12 2.12 0 0 0 1.478-.636l1.283-1.283a.741.741 0 0 0-.07-1.108l-2.858-2.223a.744.744 0 0 0-.634-.134l-2.713.678a2.265 2.265 0 0 1-2.15-.595L7.85 11.19a2.274 2.274 0 0 1-.595-2.15l.678-2.713a.736.736 0 0 0-.134-.634l-2.225-2.86a.741.741 0 0 0-.584-.285z" style="stroke:none" transform="translate(8.959 8.956)"/>
        <path d="M4.99 1.128c-.572 0-1.122.226-1.529.633V1.76L2.18 3.04c-.917.918-1.32 2.29-.87 3.568a23.098 23.098 0 0 0 5.48 8.688 23.1 23.1 0 0 0 8.688 5.48c1.278.449 2.65.045 3.565-.87l1.283-1.284c.92-.919.825-2.438-.202-3.236l-2.858-2.223a2.163 2.163 0 0 0-1.853-.391l-2.713.678a.84.84 0 0 1-.798-.22l-3.047-3.045a.84.84 0 0 1-.22-.798l.678-2.715a2.157 2.157 0 0 0-.392-1.85l-2.222-2.86a2.163 2.163 0 0 0-1.708-.834m7.504 13.67c.175 0 .352-.022.526-.065l2.713-.678a.84.84 0 0 1 .719.152l2.858 2.224a.84.84 0 0 1 .08 1.257l-1.283 1.283c-.599.599-1.448.819-2.192.556a21.776 21.776 0 0 1-8.192-5.166A21.776 21.776 0 0 1 2.556 6.17c-.263-.744-.042-1.593.557-2.192l1.282-1.283a.84.84 0 0 1 1.258.078l2.225 2.86a.84.84 0 0 1 .152.719l-.678 2.713a2.163 2.163 0 0 0 .569 2.055l3.044 3.045c.41.41.963.634 1.53.634M4.99.928a2.364 2.364 0 0 1 1.866.913l2.222 2.857c.443.568.603 1.324.428 2.023l-.679 2.714c-.054.217.01.45.169.609l3.046 3.044a.637.637 0 0 0 .609.168l2.713-.678a2.365 2.365 0 0 1 2.024.427l2.858 2.223a2.365 2.365 0 0 1 .22 3.536l-1.282 1.283c-.708.707-1.665 1.113-2.628 1.113-.391 0-.777-.066-1.146-.196A23.44 23.44 0 0 1 1.12 6.674c-.458-1.303-.107-2.75.917-3.775L3.32 1.618a2.347 2.347 0 0 1 1.67-.69zm7.504 14.07a2.348 2.348 0 0 1-1.67-.693L7.778 11.26a2.375 2.375 0 0 1-.621-2.245l.678-2.713a.637.637 0 0 0-.116-.548l-2.225-2.86a.641.641 0 0 0-.958-.059L3.254 4.118c-.552.552-.747 1.312-.51 1.984a21.706 21.706 0 0 0 5.12 8.118 21.706 21.706 0 0 0 8.117 5.119c.185.065.378.097.577.097.509 0 1.022-.22 1.407-.607l1.283-1.282a.641.641 0 0 0-.06-.959l-2.859-2.223a.649.649 0 0 0-.548-.116l-2.713.678c-.187.047-.38.07-.574.07z" style="fill:#262525;stroke:none" transform="translate(8.959 8.956)"/>
    </g>
</svg>
