<svg xmlns="http://www.w3.org/2000/svg" width="35" height="35" viewBox="0 0 35 35">
    <g data-name="그룹 480" transform="translate(-21 -681)">
        <circle data-name="타원 14" cx="17.5" cy="17.5" r="17.5" transform="translate(21 681)" style="fill:#595260"/>
        <g data-name="그룹 514">
            <path data-name="패스 26088" d="M12.217 5.25H2.625a2.625 2.625 0 1 1 0-5.25h9.593a.45.45 0 0 1 0 .9H2.625a1.724 1.724 0 1 0 0 3.448h9.593a.45.45 0 0 1 0 .9" transform="translate(32 690)" style="fill:#fff;stroke:#fff;stroke-width:.2px"/>
            <path data-name="패스 26089" d="M12.6 23.363H.45a.45.45 0 0 1-.45-.45V8.971a.45.45 0 1 1 .9 0v13.491h11.25v-11a.45.45 0 0 1 .9 0v11.45a.45.45 0 0 1-.45.45" transform="translate(32 683.398)" style="fill:#fff;stroke:#fff;stroke-width:.2px"/>
            <path data-name="패스 26090" d="M46.757 5.185a2.593 2.593 0 0 1 0-5.185.45.45 0 0 1 0 .9 1.692 1.692 0 0 0 0 3.384.45.45 0 0 1 0 .9" transform="translate(-2.221 690)" style="fill:#fff;stroke:#fff;stroke-width:.2px"/>
        </g>
    </g>
</svg>
