<svg xmlns="http://www.w3.org/2000/svg" width="35" height="35" viewBox="0 0 35 35">
    <g data-name="그룹 479" transform="translate(-91 -681)">
        <circle data-name="타원 50" cx="17.5" cy="17.5" r="17.5" transform="translate(91 681)" style="fill:#15979e"/>
        <g data-name="그룹 476">
            <path data-name="패스 26079" d="M14.864 14.266H1.627A1.629 1.629 0 0 1 0 12.639V3.491a1.629 1.629 0 0 1 1.627-1.627h1.457a1.082 1.082 0 0 0 1-.69A1.843 1.843 0 0 1 5.8 0h4.87a1.843 1.843 0 0 1 1.71 1.174 1.082 1.082 0 0 0 1 .69h1.457a1.629 1.629 0 0 1 1.627 1.627v9.174a1.6 1.6 0 0 1-1.6 1.6M1.627 2.626a.866.866 0 0 0-.865.865v9.148a.866.866 0 0 0 .865.865h13.237a.841.841 0 0 0 .84-.84V3.491a.866.866 0 0 0-.865-.865h-1.457a1.849 1.849 0 0 1-1.715-1.178 1.076 1.076 0 0 0-1-.686H5.8a1.076 1.076 0 0 0-1 .686 1.849 1.849 0 0 1-1.716 1.178z" style="fill:#fff;stroke:#fff;stroke-width:.5px" transform="translate(100 691)"/>
            <path data-name="패스 26080" d="M26.972 27.61a3.823 3.823 0 1 1 3.828-3.824 3.828 3.828 0 0 1-3.823 3.823m0-6.885a3.062 3.062 0 1 0 3.062 3.062 3.065 3.065 0 0 0-3.062-3.062" transform="translate(81.26 674.839)" style="fill:#fff;stroke:#fff;stroke-width:.5px"/>
        </g>
    </g>
</svg>
