<svg xmlns="http://www.w3.org/2000/svg" width="35" height="35" viewBox="0 0 35 35">
    <g data-name="그룹 480" transform="translate(-21 -681)">
        <circle data-name="타원 14" cx="17.5" cy="17.5" r="17.5" transform="translate(21 681)" style="fill:#f68722"/>
        <path data-name="패스 26025" d="M14.125 0H1.875A1.876 1.876 0 0 0 0 1.875v12.25A1.876 1.876 0 0 0 1.875 16h12.25A1.876 1.876 0 0 0 16 14.125V1.875A1.876 1.876 0 0 0 14.125 0M1.875 1.25h12.25a.626.626 0 0 1 .625.625v9.178l-2.127-2.127a1.876 1.876 0 0 0-2.651 0l-.69.69-1.941-1.94a1.876 1.876 0 0 0-2.651 0l-3.44 3.44V1.875a.627.627 0 0 1 .625-.625m12.25 13.5H1.875a.627.627 0 0 1-.625-.625v-1.241l4.324-4.319a.625.625 0 0 1 .884 0l2.824 2.824 1.574-1.574a.625.625 0 0 1 .884 0l3.012 3.012v1.3a.625.625 0 0 1-.625.62m-4-8.5A1.875 1.875 0 1 0 8.25 4.375a1.875 1.875 0 0 0 1.875 1.875m0-2.5a.625.625 0 1 1-.625.625.625.625 0 0 1 .625-.625z" transform="translate(30.5 691)" style="fill:#fff"/>
    </g>
</svg>
