<svg xmlns="http://www.w3.org/2000/svg" width="22" height="22" viewBox="0 0 22 22">
    <defs>
        <clipPath id="uh058wshba">
            <path data-name="사각형 1194" style="fill:#bcb3c5" d="M0 0h17.627v17.63H0z"/>
        </clipPath>
    </defs>
    <path data-name="사각형 1195" style="fill:none" d="M0 0h22v22H0z"/>
    <g data-name="그룹 301">
        <g data-name="그룹 300" transform="translate(2 2)" style="clip-path:url(#uh058wshba)">
            <path data-name="패스 25974" d="M12.906.324A1.09 1.09 0 0 0 11.1.71a7.133 7.133 0 0 1-3.2 3.623 12.044 12.044 0 0 1-5.7 1.194 1.089 1.089 0 0 0-.42.084 1.1 1.1 0 0 0-.6 1.436 1.09 1.09 0 0 0 .239.359l3.568 3.568L0 17.63l6.657-4.992 3.567 3.567a1.073 1.073 0 0 0 .359.239A1.1 1.1 0 0 0 12.1 15.43a11.9 11.9 0 0 1 1.2-5.684 7.124 7.124 0 0 1 3.623-3.2 1.081 1.081 0 0 0 .39-.248 1.1 1.1 0 0 0 0-1.556z" transform="translate(0 -.001)" style="fill:#bcb3c5"/>
        </g>
    </g>
</svg>
